<?xml version="1.0" encoding="UTF-8"?>
<!--
  face-base.svg — 日本美容イラスト風 正面顔（閉眼・清潔感スタイル）
  座標系: 500×600  /  参考: photolibrary風フラットイラスト

  固定ランドマーク（zones.ts 整合）:
    眉中央左(200,200) 眉中央右(300,200)
    外眼角左(172,228) 外眼角右(328,228)
    内眼角左(222,228) 内眼角右(278,228)
    鼻翼左(228,348)   鼻翼右(272,348)
    口角左(220,418)   口角右(280,418)
    下顎角左(155,455) 下顎角右(345,455)
    顎先(250,494)
-->
<svg xmlns="http://www.w3.org/2000/svg" viewBox="0 0 500 600" width="500" height="600">
<defs>
  <!-- 肌グラデーション：中央やや上が明るい -->
  <radialGradient id="g_face" cx="50%" cy="32%" r="60%">
    <stop offset="0%"   stop-color="#fde8cc"/>
    <stop offset="55%"  stop-color="#f5c8a0"/>
    <stop offset="88%"  stop-color="#e8a870"/>
    <stop offset="100%" stop-color="#d89058"/>
  </radialGradient>
  <!-- 首 -->
  <linearGradient id="g_neck" x1="0%" y1="0%" x2="0%" y2="100%">
    <stop offset="0%"   stop-color="#f0bc90"/>
    <stop offset="100%" stop-color="#e0a070"/>
  </linearGradient>
  <!-- 肩 -->
  <linearGradient id="g_shoulder" x1="0%" y1="0%" x2="0%" y2="100%">
    <stop offset="0%"   stop-color="#f2c09a"/>
    <stop offset="100%" stop-color="#e8aa78"/>
  </linearGradient>
  <!-- 下唇グラデーション -->
  <radialGradient id="g_lip" cx="50%" cy="40%" r="55%">
    <stop offset="0%"   stop-color="#f0b0a8"/>
    <stop offset="100%" stop-color="#d88888"/>
  </radialGradient>
  <!-- 耳 -->
  <radialGradient id="g_ear" cx="60%" cy="40%" r="55%">
    <stop offset="0%"   stop-color="#f5c8a0"/>
    <stop offset="100%" stop-color="#e0a070"/>
  </radialGradient>
</defs>

<!-- ===== 背景 ===== -->
<rect width="500" height="600" fill="#ffffff"/>

<!-- ===== 肩（デコルテ） ===== -->
<path d="M 60,600 L 60,540 Q 100,510 155,505 Q 180,500 218,495
         L 218,490 Q 235,500 250,502 Q 265,500 282,490
         L 282,495 Q 320,500 345,505 Q 400,510 440,540 L 440,600 Z"
  fill="url(#g_shoulder)"/>
<!-- 鎖骨ライン（左） -->
<path d="M 155,505 Q 200,492 218,490" fill="none" stroke="#d4905a" stroke-width="1.5" stroke-linecap="round" opacity="0.55"/>
<!-- 鎖骨ライン（右） -->
<path d="M 345,505 Q 300,492 282,490" fill="none" stroke="#d4905a" stroke-width="1.5" stroke-linecap="round" opacity="0.55"/>

<!-- ===== 首 ===== -->
<path d="M 218,490 Q 210,530 208,570 L 292,570 Q 290,530 282,490
         Q 265,502 250,503 Q 235,502 218,490Z"
  fill="url(#g_neck)" stroke="#d4905a" stroke-width="1.2" stroke-linejoin="round"/>
<!-- 胸鎖乳突筋ライン（左） -->
<path d="M 220,495 C 216,520 214,548 213,570" fill="none" stroke="#d4905a" stroke-width="1" opacity="0.28"/>
<!-- 胸鎖乳突筋ライン（右） -->
<path d="M 280,495 C 284,520 286,548 287,570" fill="none" stroke="#d4905a" stroke-width="1" opacity="0.28"/>

<!-- ===== 顔輪郭 ===== -->
<!-- 美容イラスト典型: 額広め・頬骨なだらか・顎先やや尖り気味の卵形 -->
<path d="
  M 250,98
  C 290,98  340,118 362,162
  C 382,202 382,252 378,295
  C 374,338 365,378 350,412
  C 334,448 312,472 284,486
  C 270,492 260,494 250,494
  C 240,494 230,492 216,486
  C 188,472 166,448 150,412
  C 135,378 126,338 122,295
  C 118,252 118,202 138,162
  C 160,118 210,98 250,98 Z
" fill="url(#g_face)" stroke="#d4905a" stroke-width="1.8"/>

<!-- 顔の立体感シェーディング（極めて薄く） -->
<!-- 側面の陰影 -->
<path d="M122,240 C118,280 120,320 128,358 C136,390 146,418 158,440"
  fill="none" stroke="#c07840" stroke-width="32" stroke-linecap="round" opacity="0.07"/>
<path d="M378,240 C382,280 380,320 372,358 C364,390 354,418 342,440"
  fill="none" stroke="#c07840" stroke-width="32" stroke-linecap="round" opacity="0.07"/>
<!-- 額中央ハイライト -->
<ellipse cx="250" cy="152" rx="64" ry="42" fill="#ffffff" opacity="0.12"/>
<!-- 鼻筋ハイライト -->
<path d="M250,252 C250,290 250,320 250,342" fill="none" stroke="#ffffff" stroke-width="4" stroke-linecap="round" opacity="0.22"/>

<!-- ===== 耳 ===== -->
<!-- 左耳: 顔の左端 x≈122, 耳たぶ y≈275〜330 -->
<path d="M 122,272 C 104,262 91,280 93,302 C 95,324 110,338 124,332
         C 118,322 113,308 115,294 C 117,282 120,275 122,272 Z"
  fill="url(#g_ear)" stroke="#d4905a" stroke-width="1.4"/>
<!-- 耳甲介の曲線 -->
<path d="M 107,284 C 110,296 110,312 107,322" fill="none" stroke="#d4905a" stroke-width="1.2" opacity="0.38"/>
<path d="M 113,290 C 115,300 115,314 112,320" fill="none" stroke="#d4905a" stroke-width="0.8" opacity="0.28"/>

<!-- 右耳 -->
<path d="M 378,272 C 396,262 409,280 407,302 C 405,324 390,338 376,332
         C 382,322 387,308 385,294 C 383,282 380,275 378,272 Z"
  fill="url(#g_ear)" stroke="#d4905a" stroke-width="1.4"/>
<path d="M 393,284 C 390,296 390,312 393,322" fill="none" stroke="#d4905a" stroke-width="1.2" opacity="0.38"/>
<path d="M 387,290 C 385,300 385,314 388,320" fill="none" stroke="#d4905a" stroke-width="0.8" opacity="0.28"/>

<!-- ===== 髪（まとめ髪・サイドをすっきり） ===== -->
<!-- 後頭部ベース -->
<path d="
  M 128,195
  C 122,164 130,134 154,112
  C 178,90  212,80  250,80
  C 288,80  322,90  346,112
  C 370,134 378,164 372,195
  C 362,172 346,155 326,146
  C 304,136 278,130 250,130
  C 222,130 196,136 174,146
  C 154,155 138,172 128,195 Z
" fill="#7a4e2a"/>
<!-- 髪表面（明るいブラウン） -->
<path d="
  M 132,192
  C 130,164 138,138 160,116
  C 184,94  216,84  250,84
  C 284,84  316,94  340,116
  C 362,138 370,164 368,192
  C 358,171 342,155 322,146
  C 300,136 276,130 250,130
  C 224,130 200,136 178,146
  C 158,155 142,171 132,192 Z
" fill="#9a6535" stroke="#6a3e1a" stroke-width="0.8"/>
<!-- サイドの髪（顔に沿って自然に流れる） -->
<!-- 左サイド: 耳の上から後ろへ流れる -->
<path d="M 132,192 C 128,215 126,240 128,265 C 124,258 120,244 122,228"
  fill="#8a5828" stroke="none"/>
<!-- 右サイド -->
<path d="M 368,192 C 372,215 374,240 372,265 C 376,258 380,244 378,228"
  fill="#8a5828" stroke="none"/>
<!-- 前髪のハイライト -->
<path d="M 210,88 C 232,80 268,80 290,88 C 268,84 232,84 210,88 Z"
  fill="#c08848" opacity="0.60"/>
<!-- 毛流れライン -->
<path d="M 198,88 C 190,108 186,128 185,148" fill="none" stroke="#c08848" stroke-width="1.5" opacity="0.38"/>
<path d="M 225,84 C 222,106 221,126 222,144" fill="none" stroke="#c08848" stroke-width="1.5" opacity="0.38"/>
<path d="M 250,82 C 250,104 250,124 250,130" fill="none" stroke="#c08848" stroke-width="1.5" opacity="0.38"/>
<path d="M 275,84 C 278,106 279,126 278,144" fill="none" stroke="#c08848" stroke-width="1.5" opacity="0.38"/>
<path d="M 302,88 C 310,108 314,128 315,148" fill="none" stroke="#c08848" stroke-width="1.5" opacity="0.38"/>
<!-- おくれ毛（左右） -->
<path d="M 142,195 C 138,218 136,245 138,268" fill="none" stroke="#9a6535" stroke-width="2.5" stroke-linecap="round" opacity="0.5"/>
<path d="M 358,195 C 362,218 364,245 362,268" fill="none" stroke="#9a6535" stroke-width="2.5" stroke-linecap="round" opacity="0.5"/>

<!-- ===== 眉毛 ===== -->
<!-- 左眉: 眉頭(168,208) 眉山(198,193) 眉尻(233,200) -->
<path d="M 168,208 Q 186,193 200,191 Q 216,190 233,200"
  stroke="#7a4a20" stroke-width="7" stroke-linecap="round" fill="none"/>
<path d="M 170,207 Q 188,194 201,192 Q 217,191 231,200"
  stroke="#aa7840" stroke-width="3.5" stroke-linecap="round" fill="none" opacity="0.45"/>

<!-- 右眉: 眉頭(332,208) 眉山(302,193) 眉尻(267,200) -->
<path d="M 332,208 Q 314,193 300,191 Q 284,190 267,200"
  stroke="#7a4a20" stroke-width="7" stroke-linecap="round" fill="none"/>
<path d="M 330,207 Q 312,194 299,192 Q 283,191 269,200"
  stroke="#aa7840" stroke-width="3.5" stroke-linecap="round" fill="none" opacity="0.45"/>

<!-- ===== 目（閉眼スタイル） ===== -->
<!--
  外眼角左(172,228) 内眼角左(222,228) 中心(197,228)
  閉眼: 上まぶたライン + 下向きまつ毛
-->

<!-- 左目: まぶたの皮膚色帯 -->
<path d="M 172,228 Q 185,216 197,215 Q 210,216 222,228 Q 210,224 197,224 Q 185,224 172,228 Z"
  fill="#edb88a" opacity="0.60"/>
<!-- 左目: 上まぶたライン（閉眼） -->
<path d="M 172,228 Q 186,215 197,213 Q 209,215 222,228"
  fill="none" stroke="#4a2c10" stroke-width="2.8" stroke-linecap="round"/>
<!-- 左目: 下まぶたライン（ごく薄く） -->
<path d="M 172,228 Q 185,236 197,237 Q 210,236 222,228"
  fill="none" stroke="#c49060" stroke-width="1.0" stroke-linecap="round" opacity="0.45"/>
<!-- 左目: 下向きまつ毛（長め、扇状） -->
<path d="M 176,222 Q 173,213 172,208" stroke="#3a1e08" stroke-width="2.2" fill="none" stroke-linecap="round"/>
<path d="M 182,217 Q 180,207 180,202" stroke="#3a1e08" stroke-width="2.2" fill="none" stroke-linecap="round"/>
<path d="M 189,214 Q 188,204 188,198" stroke="#3a1e08" stroke-width="2.2" fill="none" stroke-linecap="round"/>
<path d="M 197,213 Q 197,203 197,197" stroke="#3a1e08" stroke-width="2.2" fill="none" stroke-linecap="round"/>
<path d="M 205,214 Q 206,204 207,198" stroke="#3a1e08" stroke-width="2.0" fill="none" stroke-linecap="round"/>
<path d="M 212,217 Q 214,208 215,202" stroke="#3a1e08" stroke-width="2.0" fill="none" stroke-linecap="round"/>
<path d="M 218,222 Q 221,213 223,208" stroke="#3a1e08" stroke-width="1.8" fill="none" stroke-linecap="round"/>
<!-- 左目: 内眼角の涙丘 -->
<path d="M 222,228 Q 220,231 218,229" fill="#f0b898" stroke="#d4905a" stroke-width="0.8" opacity="0.6"/>

<!-- 右目: まぶたの皮膚色帯 -->
<path d="M 278,228 Q 290,216 303,215 Q 315,216 328,228 Q 316,224 303,224 Q 290,224 278,228 Z"
  fill="#edb88a" opacity="0.60"/>
<!-- 右目: 上まぶたライン（閉眼） -->
<path d="M 278,228 Q 291,215 303,213 Q 315,215 328,228"
  fill="none" stroke="#4a2c10" stroke-width="2.8" stroke-linecap="round"/>
<!-- 右目: 下まぶたライン -->
<path d="M 278,228 Q 290,236 303,237 Q 316,236 328,228"
  fill="none" stroke="#c49060" stroke-width="1.0" stroke-linecap="round" opacity="0.45"/>
<!-- 右目: 下向きまつ毛 -->
<path d="M 324,222 Q 327,213 328,208" stroke="#3a1e08" stroke-width="2.2" fill="none" stroke-linecap="round"/>
<path d="M 318,217 Q 320,207 320,202" stroke="#3a1e08" stroke-width="2.2" fill="none" stroke-linecap="round"/>
<path d="M 311,214 Q 312,204 312,198" stroke="#3a1e08" stroke-width="2.2" fill="none" stroke-linecap="round"/>
<path d="M 303,213 Q 303,203 303,197" stroke="#3a1e08" stroke-width="2.2" fill="none" stroke-linecap="round"/>
<path d="M 295,214 Q 294,204 293,198" stroke="#3a1e08" stroke-width="2.0" fill="none" stroke-linecap="round"/>
<path d="M 288,217 Q 286,208 285,202" stroke="#3a1e08" stroke-width="2.0" fill="none" stroke-linecap="round"/>
<path d="M 282,222 Q 279,213 277,208" stroke="#3a1e08" stroke-width="1.8" fill="none" stroke-linecap="round"/>
<!-- 右目: 内眼角 -->
<path d="M 278,228 Q 280,231 282,229" fill="#f0b898" stroke="#d4905a" stroke-width="0.8" opacity="0.6"/>

<!-- ===== 頬の血色（ふわっと自然に） ===== -->
<ellipse cx="155" cy="312" rx="52" ry="34" fill="#f08888" opacity="0.10"/>
<ellipse cx="345" cy="312" rx="52" ry="34" fill="#f08888" opacity="0.10"/>
<!-- 頬の血色（内側、やや濃い） -->
<ellipse cx="168" cy="308" rx="28" ry="18" fill="#f09090" opacity="0.09"/>
<ellipse cx="332" cy="308" rx="28" ry="18" fill="#f09090" opacity="0.09"/>

<!-- ===== 鼻（ミニマル、エレガント） ===== -->
<!-- 鼻先の丸み（ごく薄い陰影） -->
<ellipse cx="250" cy="344" rx="22" ry="10" fill="#d4905a" opacity="0.10"/>
<!-- 鼻翼左 -->
<path d="M 236,338 Q 228,346 228,354 Q 228,360 234,362 Q 242,364 250,361"
  fill="none" stroke="#d4905a" stroke-width="1.8" stroke-linecap="round" opacity="0.80"/>
<!-- 鼻翼右 -->
<path d="M 264,338 Q 272,346 272,354 Q 272,360 266,362 Q 258,364 250,361"
  fill="none" stroke="#d4905a" stroke-width="1.8" stroke-linecap="round" opacity="0.80"/>
<!-- 鼻孔（小さく） -->
<ellipse cx="236" cy="355" rx="6" ry="4.5" fill="#c07848" opacity="0.18"/>
<ellipse cx="264" cy="355" rx="6" ry="4.5" fill="#c07848" opacity="0.18"/>
<!-- 鼻背の微妙な陰影ライン -->
<path d="M 246,252 C 244,290 242,315 241,335" fill="none" stroke="#d4905a" stroke-width="1" opacity="0.18"/>
<path d="M 254,252 C 256,290 258,315 259,335" fill="none" stroke="#d4905a" stroke-width="1" opacity="0.18"/>

<!-- ===== 人中 ===== -->
<path d="M 244,364 C 242,382 241,400 241,414" fill="none" stroke="#d4905a" stroke-width="1" opacity="0.20"/>
<path d="M 256,364 C 258,382 259,400 259,414" fill="none" stroke="#d4905a" stroke-width="1" opacity="0.20"/>

<!-- ===== 鼻唇溝（法令線の陰影ヒント） ===== -->
<path d="M 228,352 Q 220,384 220,420" fill="none" stroke="#d4905a" stroke-width="1.5" opacity="0.10"/>
<path d="M 272,352 Q 280,384 280,420" fill="none" stroke="#d4905a" stroke-width="1.5" opacity="0.10"/>

<!-- ===== 口（穏やか・ナチュラルな微笑） ===== -->
<!-- 下唇 -->
<path d="M 220,418 Q 250,440 280,418 Q 265,434 250,435 Q 235,434 220,418 Z"
  fill="url(#g_lip)" stroke="#c07878" stroke-width="1.4" stroke-linejoin="round"/>
<!-- 上唇（キューピッドボウ） -->
<path d="M 220,418 Q 233,409 241,412 Q 250,407 259,412 Q 267,409 280,418"
  fill="#e09090" stroke="#c07878" stroke-width="1.4" stroke-linejoin="round"/>
<!-- 口の合わせ目 -->
<path d="M 222,418 Q 250,421 278,418"
  fill="none" stroke="#b06868" stroke-width="0.9" opacity="0.55"/>
<!-- 口角のくぼみ -->
<path d="M 220,418 Q 218,420 219,422" fill="none" stroke="#b06868" stroke-width="1.2" stroke-linecap="round" opacity="0.35"/>
<path d="M 280,418 Q 282,420 281,422" fill="none" stroke="#b06868" stroke-width="1.2" stroke-linecap="round" opacity="0.35"/>
<!-- 下唇のハイライト -->
<path d="M 236,426 Q 250,422 264,426" fill="none" stroke="#ffffff" stroke-width="2.5" stroke-linecap="round" opacity="0.32"/>

<!-- ===== 解剖学的参考線（常時非表示） ===== -->
<g opacity="0">
  <ellipse cx="197" cy="228" rx="28" ry="15"
    fill="none" stroke="#3b82f6" stroke-width="1" stroke-dasharray="3,3"/>
  <ellipse cx="303" cy="228" rx="28" ry="15"
    fill="none" stroke="#3b82f6" stroke-width="1" stroke-dasharray="3,3"/>
</g>

</svg>
